<svg version="1.1" id="Layer_1" xmlns="http://www.w3.org/2000/svg" xmlns:xlink="http://www.w3.org/1999/xlink" x="0px" y="0px"
	 width="100%" viewBox="0 0 768 768" enable-background="new 0 0 768 768" xml:space="preserve">
<path fill="#F5F8F9" opacity="1.000000" stroke="none" 
	d="
M358.000000,769.000000 
	C238.666672,769.000000 119.833336,769.000000 1.000000,769.000000 
	C1.000000,513.000000 1.000000,257.000000 1.000000,1.000000 
	C257.000000,1.000000 513.000000,1.000000 769.000000,1.000000 
	C769.000000,257.000000 769.000000,513.000000 769.000000,769.000000 
	C632.166687,769.000000 495.333344,769.000000 358.000000,769.000000 
M487.992554,244.125076 
	C487.285858,243.071091 486.579132,242.017105 485.751190,240.497406 
	C485.578033,240.213699 485.340210,240.002945 484.818573,239.273605 
	C483.854095,238.183624 482.889648,237.093643 481.758698,235.567795 
	C481.574799,235.294540 481.321350,235.125580 480.731537,234.558197 
	C479.988739,234.002975 479.245972,233.447769 478.256256,232.411850 
	C477.842072,232.094650 477.427887,231.777466 476.624573,231.115387 
	C476.459503,231.062454 476.294464,231.009537 475.717804,230.397430 
	C463.449554,222.441589 450.393158,223.264603 437.324768,227.507355 
	C420.785217,232.877045 406.635193,242.552567 393.114502,253.233597 
	C385.006744,259.638519 384.970856,259.581299 377.236603,253.125610 
	C375.703033,251.845551 374.156494,250.574707 372.548859,249.390671 
	C358.559906,239.088013 344.243652,229.389435 326.871185,225.597183 
	C307.257874,221.315781 291.122742,228.560181 281.938416,245.878525 
	C276.802612,255.562851 273.917297,266.078888 274.168884,276.925232 
	C274.480072,290.342255 275.641571,303.791199 277.412231,317.096436 
	C278.084808,322.150421 276.821747,323.649048 272.489502,325.168365 
	C255.267487,331.208252 238.951584,339.114471 225.050079,351.176147 
	C214.422821,360.396942 206.235428,371.232452 207.056564,386.279175 
	C207.808731,400.062195 215.608307,410.121490 225.698792,418.626068 
	C239.512192,430.268433 255.510910,438.020111 272.429871,443.891296 
	C277.234131,445.558441 278.349731,447.548370 277.620148,452.803131 
	C275.912445,465.102386 275.402191,477.567932 274.287842,490.792664 
	C276.236938,500.350861 277.105133,510.299286 280.382629,519.377930 
	C285.594452,533.814636 296.136047,543.215332 312.043030,544.698242 
	C323.438446,545.760681 334.078949,542.590454 344.704041,536.888184 
	C358.552124,527.847168 372.400208,518.806213 386.706024,509.466370 
	C387.406342,509.953735 389.018005,511.075348 391.016113,512.762573 
	C393.827148,515.080750 396.566193,517.493408 399.461304,519.701294 
	C414.415222,531.105896 429.942749,541.396423 449.873596,544.943665 
	C452.910889,544.838501 455.948151,544.733337 459.755127,544.565063 
	C471.500610,542.430481 480.569885,536.431580 486.989838,525.373291 
	C492.455841,516.699585 494.837433,507.056030 496.117676,496.118225 
	C497.968018,480.205261 496.084808,464.553314 492.875244,448.220215 
	C494.739166,446.883057 496.424561,445.084290 498.495819,444.283295 
	C512.509766,438.863861 526.232422,432.918091 538.491699,424.045685 
	C550.507996,415.349030 560.684204,405.307068 563.804749,389.150146 
	C565.268433,379.187378 562.243591,370.320709 556.561279,362.409912 
	C544.419983,345.507050 526.760620,336.461731 507.666901,328.910400 
	C507.666901,328.910400 507.278290,328.914124 506.971649,328.524719 
	C506.707825,328.291138 506.401001,328.195496 505.421814,327.860443 
	C501.273956,326.241882 497.126099,324.623322 492.985321,322.177368 
	C493.861389,315.790070 494.737427,309.402740 495.846985,302.165894 
	C497.861053,285.502167 497.829010,269.005219 491.843903,252.428864 
	C491.565582,251.951309 491.287292,251.473740 490.971100,250.341858 
	C490.596222,249.558670 490.221313,248.775497 489.791382,247.367188 
	C489.223724,246.496246 488.656036,245.625320 487.992554,244.125076 
M178.768036,336.683289 
	C179.488312,335.374542 180.427170,334.138184 180.889099,332.743835 
	C182.466156,327.983490 185.392883,325.868195 190.592041,326.591095 
	C193.850555,327.044159 197.230164,326.733856 200.550034,326.614899 
	C206.923859,326.386536 210.722855,322.945862 210.843597,317.435913 
	C210.971130,311.615570 206.635590,307.170776 200.483612,307.075287 
	C193.007080,306.959229 185.526169,307.116150 178.050034,306.987518 
	C172.264633,306.888000 168.641663,309.529480 166.484161,315.476288 
	C155.634155,336.474365 144.823654,357.493042 133.895157,378.450165 
	C132.080414,381.930206 131.390228,385.077667 133.329803,388.810791 
	C144.760803,410.812256 156.046982,432.888977 167.409149,454.926270 
	C169.268738,458.532990 171.971420,461.150482 176.317871,461.170837 
	C184.814804,461.210632 193.315842,461.279938 201.808167,461.062531 
	C207.136185,460.926117 211.028656,456.437439 210.927170,451.139648 
	C210.827789,445.951904 207.144318,442.157776 201.709335,441.928864 
	C197.217133,441.739716 192.703796,441.617432 188.218872,441.843323 
	C185.255447,441.992554 183.756165,440.824554 182.453537,438.282318 
	C174.104919,421.989075 165.761322,405.689056 157.059158,389.584167 
	C154.946930,385.675110 155.294388,382.696075 157.189789,379.007935 
	C164.336639,365.101562 171.236328,351.068146 178.768036,336.683289 
M610.098267,326.221405 
	C608.090515,322.035065 606.096375,317.842163 604.071350,313.664185 
	C601.933533,309.253479 598.727295,306.785522 593.489380,306.950684 
	C586.022949,307.186127 578.542664,306.950378 571.068787,306.993835 
	C564.491699,307.032043 560.414490,310.784180 560.310974,316.755737 
	C560.206604,322.784546 564.174866,326.574799 570.848389,326.742188 
	C576.321960,326.879517 581.797241,326.946045 587.453186,327.715271 
	C596.103882,344.965912 604.681030,362.254211 613.466003,379.436188 
	C615.273804,382.971863 615.538208,385.801361 613.548279,389.514069 
	C605.689148,404.177429 597.890198,418.894928 590.791748,433.933472 
	C587.862427,440.139313 584.221558,442.826477 577.515503,441.775146 
	C575.078491,441.393097 572.525085,441.651367 570.030701,441.757843 
	C564.184814,442.007355 560.123962,446.082001 560.227905,451.490784 
	C560.334595,457.041168 564.362000,461.192383 570.042725,461.264801 
	C577.869751,461.364624 585.699585,461.216919 593.527954,461.240601 
	C598.188904,461.254700 601.507751,459.110992 603.567993,455.059937 
	C614.805725,432.963654 626.092224,410.890747 637.070801,388.666046 
	C638.233276,386.312653 638.579651,382.488495 637.474121,380.251190 
	C628.636108,362.364838 619.356812,344.696533 610.098267,326.221405 
z"/>
<path fill="#4ABCE7" opacity="1.000000" stroke="none" 
	d="
M274.407074,489.966125 
	C275.402191,477.567932 275.912445,465.102386 277.620148,452.803131 
	C278.349731,447.548370 277.234131,445.558441 272.429871,443.891296 
	C255.510910,438.020111 239.512192,430.268433 225.698792,418.626068 
	C215.608307,410.121490 207.808731,400.062195 207.056564,386.279175 
	C206.235428,371.232452 214.422821,360.396942 225.050079,351.176147 
	C238.951584,339.114471 255.267487,331.208252 272.489502,325.168365 
	C276.821747,323.649048 278.084808,322.150421 277.412231,317.096436 
	C275.641571,303.791199 274.480072,290.342255 274.168884,276.925232 
	C273.917297,266.078888 276.802612,255.562851 281.938416,245.878525 
	C291.122742,228.560181 307.257874,221.315781 326.871185,225.597183 
	C344.243652,229.389435 358.559906,239.088013 372.548859,249.390671 
	C374.156494,250.574707 375.703033,251.845551 377.236603,253.125610 
	C384.970856,259.581299 385.006744,259.638519 393.114502,253.233597 
	C406.635193,242.552567 420.785217,232.877045 437.324768,227.507355 
	C450.393158,223.264603 463.449554,222.441589 475.541046,230.685013 
	C473.718414,231.126282 472.072510,231.279968 470.426636,231.433655 
	C470.546906,232.678955 470.418915,234.013931 470.830750,235.153915 
	C472.541046,239.888504 474.305450,244.610138 476.262299,249.246918 
	C477.800293,252.891174 475.330780,257.343323 478.774353,260.701569 
	C479.208588,261.125000 477.722656,263.517426 476.997070,264.644897 
	C475.857727,261.483398 474.999084,258.608795 473.810760,255.877579 
	C469.293152,245.494354 460.295074,240.677811 449.153381,242.827606 
	C433.806213,245.788834 421.432129,254.666382 409.072754,263.462585 
	C405.487762,266.014008 402.235107,269.032379 399.262360,271.480713 
	C409.334869,283.741821 418.882324,295.496124 428.639618,307.073608 
	C429.859161,308.520630 432.092102,309.503784 434.019592,309.896667 
	C442.480011,311.621094 451.000732,313.049469 459.017303,314.696960 
	C444.354919,316.599426 430.150146,318.222626 416.013794,320.309509 
	C412.848419,320.776825 409.922882,322.868652 406.427979,324.249146 
	C389.512146,324.567261 373.055328,324.849976 356.598450,325.129608 
	C352.152069,325.205139 348.867767,326.815063 346.535980,330.980865 
	C338.826233,344.754547 331.195221,358.598297 322.796692,371.951385 
	C317.068665,381.058594 317.388214,389.072479 322.906494,398.071075 
	C332.107727,413.075470 340.622253,428.500977 348.939362,443.820221 
	C336.909149,443.922211 325.355347,443.683502 313.826752,444.116089 
	C309.175629,444.290558 304.579651,445.933868 299.575348,446.929657 
	C297.110474,447.818054 294.619049,448.219818 293.015533,449.630737 
	C284.414948,457.198059 279.322632,466.863373 276.953888,478.015869 
	C276.107727,481.999878 275.256165,485.982758 274.407074,489.966125 
M292.395508,293.759827 
	C293.238403,300.014740 294.350037,306.248932 294.834686,312.531464 
	C295.188568,317.119141 297.116547,317.347656 301.034180,316.538910 
	C312.908661,314.087646 324.886719,312.142120 336.792236,309.833313 
	C338.621155,309.478638 340.801300,308.688446 341.935577,307.350586 
	C351.813843,295.699768 361.490662,283.878113 371.571594,271.690979 
	C357.452698,259.944214 342.931915,248.259247 324.403168,243.375412 
	C311.629669,240.008545 303.255310,244.012192 297.189453,255.670380 
	C295.478455,258.958801 294.345459,262.548004 292.194824,265.985626 
	C290.828217,264.552826 289.139648,263.304169 288.185364,261.635559 
	C287.226807,259.959412 287.259491,257.732208 286.371796,255.994812 
	C285.630188,254.543335 284.186340,253.450668 283.053467,252.199112 
	C281.801971,253.656281 280.026245,254.923172 279.413239,256.612091 
	C278.298370,259.683502 277.537750,262.974091 277.232513,266.229797 
	C276.609772,272.872620 276.233368,279.548676 276.046906,286.219208 
	C275.885590,291.990173 281.592163,295.535065 287.225739,293.573151 
	C288.738892,293.046173 290.479034,293.171143 292.395508,293.759827 
M256.144775,351.610016 
	C248.824219,356.770294 240.855118,361.226257 234.322174,367.241882 
	C221.887436,378.692017 222.276932,390.255676 234.236603,402.146423 
	C244.508896,412.359497 257.424805,418.161163 270.359222,423.920135 
	C274.080170,425.576843 277.966492,426.862091 281.580322,428.242523 
	C286.785400,413.809021 291.757263,400.077179 296.651733,386.317841 
	C296.956055,385.462372 296.899719,384.304565 296.595306,383.432587 
	C291.680023,369.352478 286.697296,355.295898 281.336761,340.121246 
	C273.292694,343.754578 265.030579,347.486420 256.144775,351.610016 
M402.694550,302.920013 
	C397.090546,296.665466 391.486542,290.410919 385.398865,283.616577 
	C378.439941,291.433258 372.045227,298.616211 365.111420,306.404694 
	C379.248108,306.404694 391.991943,306.404694 405.294159,306.404694 
	C404.305206,305.062500 403.727692,304.278717 402.694550,302.920013 
M308.746765,408.131073 
	C308.337158,408.000916 307.570465,407.750763 307.568207,407.757477 
	C304.649536,416.444275 301.781677,425.148132 298.707794,434.476196 
	C308.658173,436.867767 317.266815,438.936829 326.445801,441.142975 
	C320.391663,429.901794 314.700226,419.334137 308.746765,408.131073 
M302.947205,334.219360 
	C301.837677,335.130920 299.632202,336.325714 299.783569,336.911407 
	C301.937744,345.246582 304.410858,353.499329 307.159668,362.989655 
	C314.150848,350.882904 320.255707,340.310944 326.960144,328.700745 
	C318.516663,330.641296 311.117798,332.341766 302.947205,334.219360 
z"/>
<path fill="#3ABBB2" opacity="1.000000" stroke="none" 
	d="
M299.958557,446.908752 
	C304.579651,445.933868 309.175629,444.290558 313.826752,444.116089 
	C325.355347,443.683502 336.909149,443.922211 349.323425,443.933228 
	C372.282043,446.590363 394.390503,446.945190 416.461456,444.026398 
	C418.864471,443.708618 421.921082,441.917480 423.116302,439.890778 
	C433.170990,422.841125 442.940186,405.620361 452.536560,388.307617 
	C453.452271,386.655609 453.351654,383.640991 452.458923,381.911407 
	C444.832275,367.135803 436.759094,352.590546 429.141083,337.810669 
	C424.689545,329.174072 418.973206,323.167267 408.301208,324.647217 
	C407.858398,324.708649 407.359619,324.366638 406.886932,324.212555 
	C409.922882,322.868652 412.848419,320.776825 416.013794,320.309509 
	C430.150146,318.222626 444.354919,316.599426 459.411011,314.728455 
	C465.479279,315.378540 470.671478,316.108856 476.069763,317.146057 
	C481.843323,319.303528 487.410767,321.154144 492.978241,323.004761 
	C497.126099,324.623322 501.273956,326.241882 505.893188,328.234924 
	C506.633392,328.818146 506.937958,328.919708 507.278290,328.914124 
	C507.278290,328.914124 507.666901,328.910400 507.894043,329.333618 
	C508.927856,330.481781 509.734467,331.206757 510.724976,332.097046 
	C509.495453,333.124329 508.318207,334.107910 506.222473,335.858917 
	C508.036224,337.233276 509.514679,338.306915 510.943054,339.443481 
	C519.955627,346.614777 528.992493,353.756409 537.936707,361.012085 
	C540.097412,362.764893 542.559753,364.581360 543.809143,366.938110 
	C547.184448,373.304993 550.136353,379.913055 552.944397,386.557190 
	C554.412964,390.031891 556.328552,391.705536 560.159729,390.470093 
	C561.244751,390.120209 562.431519,390.085968 563.571655,389.906982 
	C560.684204,405.307068 550.507996,415.349030 538.491699,424.045685 
	C526.232422,432.918091 512.509766,438.863861 498.495819,444.283295 
	C496.424561,445.084290 494.739166,446.883057 492.433716,448.609558 
	C490.828949,449.003204 489.657227,448.917694 488.503876,449.026703 
	C482.114594,449.630554 479.383453,455.009918 483.177216,460.151947 
	C486.089355,464.099091 487.415680,468.127655 487.081421,473.042297 
	C486.721375,478.335632 486.735840,483.690399 487.095490,488.983795 
	C487.327301,492.395630 488.474976,495.745270 489.222687,499.170990 
	C492.227478,498.196075 494.069031,497.598572 495.910553,497.001099 
	C494.837433,507.056030 492.455841,516.699585 486.434357,525.756470 
	C482.475006,527.887939 478.583252,525.705566 474.773682,528.456116 
	C472.270111,530.263672 467.266541,528.749207 463.411987,528.398499 
	C462.812408,528.343994 462.370514,526.555969 462.096497,525.351074 
	C470.429382,521.257263 473.740784,513.939209 475.897614,505.931946 
	C479.440613,492.778564 479.197052,479.393494 477.781677,465.996918 
	C477.317200,461.600494 476.407715,457.251068 475.643616,452.520538 
	C473.536530,452.856079 471.909515,453.059753 470.305786,453.379883 
	C461.339813,455.169739 452.443237,457.939240 443.400360,458.545685 
	C433.029022,459.241211 426.138367,463.495178 420.251892,471.952637 
	C414.041687,480.875214 406.224640,488.679413 398.732025,496.984863 
	C394.324524,498.583527 390.799835,504.395050 391.221375,508.406769 
	C391.350555,509.635864 390.844727,510.931702 390.629669,512.196960 
	C389.018005,511.075348 387.406342,509.953735 386.706024,509.466370 
	C372.400208,518.806213 358.552124,527.847168 344.293640,536.588135 
	C339.047424,532.507629 334.572449,528.090759 327.549927,528.852539 
	C326.476257,528.968994 325.191223,527.137268 324.351501,526.061523 
	C342.570038,519.765564 357.440674,508.957306 371.509583,496.568420 
	C369.377991,494.017944 367.691681,492.000244 365.964539,489.674255 
	C365.324463,488.897858 364.725250,488.429718 363.829651,487.803406 
	C357.268311,480.105194 350.805603,472.717163 344.836273,464.949982 
	C342.468384,461.868896 339.735809,460.766968 336.173737,460.106750 
	C323.756195,457.805328 311.388885,455.233154 299.002930,452.389618 
	C299.321777,450.313141 299.640167,448.610931 299.958557,446.908752 
M445.827698,440.259857 
	C454.217621,438.622437 462.607544,436.985016 471.983673,435.155121 
	C469.037354,425.312744 466.399414,416.500580 463.386749,406.436615 
	C456.744995,418.563354 450.873932,429.282898 444.695587,440.080963 
	C444.795502,440.052368 444.895447,440.023773 445.827698,440.259857 
M385.602264,483.787537 
	C392.036560,477.209320 398.470856,470.631104 405.755157,463.183899 
	C391.692169,463.183899 379.307098,463.183899 366.511688,463.183899 
	C367.164703,464.344391 367.623718,465.160095 367.250519,465.990082 
	C365.106262,467.067902 362.312469,467.632690 360.964539,469.339417 
	C358.742920,472.152435 360.664581,474.869354 362.732666,477.278320 
	C364.654907,479.517487 366.977783,481.709900 368.006195,484.357269 
	C370.142395,489.856201 374.506165,491.948059 379.559174,493.276733 
	C383.406189,494.288269 386.393494,491.344086 385.674774,487.470001 
	C385.465118,486.339722 385.224579,485.215210 385.602264,483.787537 
M539.554504,369.604980 
	C525.662109,354.894989 507.766174,347.341003 489.582031,340.768982 
	C484.317749,355.337616 479.284637,369.221100 474.315033,383.127228 
	C474.000854,384.006287 473.874756,385.171387 474.177246,386.019318 
	C479.190308,400.070312 484.286011,414.091827 489.375122,428.152740 
	C503.600189,424.747742 525.583557,412.958893 535.644165,403.179779 
	C544.714417,394.363373 549.700562,386.095642 541.902405,371.570129 
	C541.308594,371.034607 540.714722,370.499115 539.554504,369.604980 
M464.436310,359.668671 
	C466.911224,351.646484 469.386139,343.624298 472.049225,334.992279 
	C462.590698,332.836670 454.043427,330.888733 444.878052,328.799896 
	C450.757446,339.674744 456.085663,349.601410 461.546997,359.454254 
	C461.875092,360.046143 463.266418,360.048676 464.436310,359.668671 
M403.391724,485.940460 
	C402.103027,484.654663 400.973785,483.085022 399.445190,482.226349 
	C398.854736,481.894684 396.560730,483.048767 396.448761,483.750305 
	C396.246796,485.016022 397.067719,487.598267 397.523712,487.612305 
	C399.319641,487.667725 401.139801,486.937958 403.391724,485.940460 
z"/>
<path fill="#2A567E" opacity="1.000000" stroke="none" 
	d="
M610.212646,326.961456 
	C619.356812,344.696533 628.636108,362.364838 637.474121,380.251190 
	C638.579651,382.488495 638.233276,386.312653 637.070801,388.666046 
	C626.092224,410.890747 614.805725,432.963654 603.567993,455.059937 
	C601.507751,459.110992 598.188904,461.254700 593.527954,461.240601 
	C585.699585,461.216919 577.869751,461.364624 570.042725,461.264801 
	C564.362000,461.192383 560.334595,457.041168 560.227905,451.490784 
	C560.123962,446.082001 564.184814,442.007355 570.030701,441.757843 
	C572.525085,441.651367 575.078491,441.393097 577.515503,441.775146 
	C584.221558,442.826477 587.862427,440.139313 590.791748,433.933472 
	C597.890198,418.894928 605.689148,404.177429 613.548279,389.514069 
	C615.538208,385.801361 615.273804,382.971863 613.466003,379.436188 
	C604.681030,362.254211 596.103882,344.965912 587.811157,327.365784 
	C595.516968,326.997986 602.864807,326.979736 610.212646,326.961456 
z"/>
<path fill="#2A567E" opacity="1.000000" stroke="none" 
	d="
M178.228546,337.082306 
	C171.236328,351.068146 164.336639,365.101562 157.189789,379.007935 
	C155.294388,382.696075 154.946930,385.675110 157.059158,389.584167 
	C165.761322,405.689056 174.104919,421.989075 182.453537,438.282318 
	C183.756165,440.824554 185.255447,441.992554 188.218872,441.843323 
	C192.703796,441.617432 197.217133,441.739716 201.709335,441.928864 
	C207.144318,442.157776 210.827789,445.951904 210.927170,451.139648 
	C211.028656,456.437439 207.136185,460.926117 201.808167,461.062531 
	C193.315842,461.279938 184.814804,461.210632 176.317871,461.170837 
	C171.971420,461.150482 169.268738,458.532990 167.409149,454.926270 
	C156.046982,432.888977 144.760803,410.812256 133.329803,388.810791 
	C131.390228,385.077667 132.080414,381.930206 133.895157,378.450165 
	C144.823654,357.493042 155.634155,336.474365 167.013962,315.429718 
	C171.105362,322.616211 174.666946,329.849243 178.228546,337.082306 
z"/>
<path fill="#3CBCB5" opacity="1.000000" stroke="none" 
	d="
M324.003937,526.206604 
	C325.191223,527.137268 326.476257,528.968994 327.549927,528.852539 
	C334.572449,528.090759 339.047424,532.507629 343.938904,536.628479 
	C334.078949,542.590454 323.438446,545.760681 312.043030,544.698242 
	C296.136047,543.215332 285.594452,533.814636 280.382629,519.377930 
	C277.105133,510.299286 276.236938,500.350861 274.347473,490.379395 
	C275.256165,485.982758 276.107727,481.999878 276.953888,478.015869 
	C279.322632,466.863373 284.414948,457.198059 293.015533,449.630737 
	C294.619049,448.219818 297.110474,447.818054 299.575348,446.929626 
	C299.640167,448.610931 299.321777,450.313141 298.592865,452.417969 
	C294.096680,453.471893 295.179626,457.019501 294.739929,459.436768 
	C291.705078,476.121155 290.915558,492.837311 296.032135,509.269073 
	C300.606537,523.959656 309.169952,528.947693 324.003937,526.206604 
z"/>
<path fill="#3CBCB5" opacity="1.000000" stroke="none" 
	d="
M461.855682,525.569580 
	C462.370514,526.555969 462.812408,528.343994 463.411987,528.398499 
	C467.266541,528.749207 472.270111,530.263672 474.773682,528.456116 
	C478.583252,525.705566 482.475006,527.887939 486.222961,526.068115 
	C480.569885,536.431580 471.500610,542.430481 459.244080,544.246948 
	C455.492767,544.163086 452.252502,544.397217 449.012207,544.631348 
	C429.942749,541.396423 414.415222,531.105896 399.461304,519.701294 
	C396.566193,517.493408 393.827148,515.080750 390.822876,512.479736 
	C390.844727,510.931702 391.350555,509.635864 391.221375,508.406769 
	C390.799835,504.395050 394.324524,498.583527 399.016174,497.150574 
	C412.677795,507.700378 425.760193,517.968506 441.471497,524.143555 
	C448.117218,526.755554 454.843231,528.206055 461.855682,525.569580 
z"/>
<path fill="#4DBEE8" opacity="1.000000" stroke="none" 
	d="
M477.126343,264.997589 
	C477.722656,263.517426 479.208588,261.125000 478.774353,260.701569 
	C475.330780,257.343323 477.800293,252.891174 476.262299,249.246918 
	C474.305450,244.610138 472.541046,239.888504 470.830750,235.153915 
	C470.418915,234.013931 470.546906,232.678955 470.426636,231.433655 
	C472.072510,231.279968 473.718414,231.126282 475.746857,230.964600 
	C476.294464,231.009537 476.459503,231.062454 476.886322,231.562256 
	C477.599762,232.303589 478.051483,232.598068 478.503174,232.892548 
	C479.245972,233.447769 479.988739,234.002975 480.972595,235.008484 
	C481.399536,235.707413 481.636688,235.889038 481.925171,236.003662 
	C482.889648,237.093643 483.854095,238.183624 485.002655,239.797089 
	C485.340363,240.614731 485.568939,240.828903 485.872437,240.963120 
	C486.579132,242.017105 487.285858,243.071091 488.018738,244.803955 
	C488.645416,246.319321 489.245911,247.155823 489.846405,247.992325 
	C490.221313,248.775497 490.596222,249.558670 490.768921,250.831757 
	C490.990692,251.879105 491.414673,252.436539 491.838623,252.993958 
	C497.829010,269.005219 497.861053,285.502167 495.417847,302.681091 
	C493.409882,304.408691 491.871246,306.462341 490.238220,306.540375 
	C489.133575,306.593140 487.232849,304.025879 486.828827,302.354736 
	C484.686676,293.494171 482.981873,284.528564 480.917664,275.647675 
	C480.605011,274.302521 479.202545,273.210632 478.205627,271.675903 
	C478.108002,270.898651 478.108887,270.447174 478.401184,269.947083 
	C478.419739,269.263092 478.146881,268.627625 477.710205,267.721588 
	C477.406372,266.633179 477.266357,265.815399 477.126343,264.997589 
z"/>
<path fill="#3CBCB6" opacity="1.000000" stroke="none" 
	d="
M563.688232,389.528564 
	C562.431519,390.085968 561.244751,390.120209 560.159729,390.470093 
	C556.328552,391.705536 554.412964,390.031891 552.944397,386.557190 
	C550.136353,379.913055 547.184448,373.304993 543.809143,366.938110 
	C542.559753,364.581360 540.097412,362.764893 537.936707,361.012085 
	C528.992493,353.756409 519.955627,346.614777 510.943054,339.443481 
	C509.514679,338.306915 508.036224,337.233276 506.222473,335.858917 
	C508.318207,334.107910 509.495453,333.124329 510.724976,332.097046 
	C509.734467,331.206757 508.927856,330.481781 508.060242,329.434326 
	C526.760620,336.461731 544.419983,345.507050 556.561279,362.409912 
	C562.243591,370.320709 565.268433,379.187378 563.688232,389.528564 
z"/>
<path fill="#4D9DDF" opacity="1.000000" stroke="none" 
	d="
M610.155457,326.591431 
	C602.864807,326.979736 595.516968,326.997986 587.720459,327.030090 
	C581.797241,326.946045 576.321960,326.879517 570.848389,326.742188 
	C564.174866,326.574799 560.206604,322.784546 560.310974,316.755737 
	C560.414490,310.784180 564.491699,307.032043 571.068787,306.993835 
	C578.542664,306.950378 586.022949,307.186127 593.489380,306.950684 
	C598.727295,306.785522 601.933533,309.253479 604.071350,313.664185 
	C606.096375,317.842163 608.090515,322.035065 610.155457,326.591431 
z"/>
<path fill="#4D9DDF" opacity="1.000000" stroke="none" 
	d="
M178.498291,336.882812 
	C174.666946,329.849243 171.105362,322.616211 167.254593,315.188171 
	C168.641663,309.529480 172.264633,306.888000 178.050034,306.987518 
	C185.526169,307.116150 193.007080,306.959229 200.483612,307.075287 
	C206.635590,307.170776 210.971130,311.615570 210.843597,317.435913 
	C210.722855,322.945862 206.923859,326.386536 200.550034,326.614899 
	C197.230164,326.733856 193.850555,327.044159 190.592041,326.591095 
	C185.392883,325.868195 182.466156,327.983490 180.889099,332.743835 
	C180.427170,334.138184 179.488312,335.374542 178.498291,336.882812 
z"/>
<path fill="#3CBCB5" opacity="1.000000" stroke="none" 
	d="
M496.014099,496.559662 
	C494.069031,497.598572 492.227478,498.196075 489.222687,499.170990 
	C488.474976,495.745270 487.327301,492.395630 487.095490,488.983795 
	C486.735840,483.690399 486.721375,478.335632 487.081421,473.042297 
	C487.415680,468.127655 486.089355,464.099091 483.177216,460.151947 
	C479.383453,455.009918 482.114594,449.630554 488.503876,449.026703 
	C489.657227,448.917694 490.828949,449.003204 492.407715,448.998322 
	C496.084808,464.553314 497.968018,480.205261 496.014099,496.559662 
z"/>
<path fill="#4ABCE7" opacity="1.000000" stroke="none" 
	d="
M478.304169,272.001617 
	C479.202545,273.210632 480.605011,274.302521 480.917664,275.647675 
	C482.981873,284.528564 484.686676,293.494171 486.828827,302.354736 
	C487.232849,304.025879 489.133575,306.593140 490.238220,306.540375 
	C491.871246,306.462341 493.409882,304.408691 495.301086,303.105835 
	C494.737427,309.402740 493.861389,315.790070 492.981781,322.591064 
	C487.410767,321.154144 481.843323,319.303528 476.077637,316.727631 
	C478.270447,301.422668 480.057312,286.809692 478.304169,272.001617 
z"/>
<path fill="#3ABBB2" opacity="1.000000" stroke="none" 
	d="
M449.442902,544.787476 
	C452.252502,544.397217 455.492767,544.163086 458.859253,544.278564 
	C455.948151,544.733337 452.910889,544.838501 449.442902,544.787476 
z"/>
<path fill="#4ABCE7" opacity="1.000000" stroke="none" 
	d="
M489.818909,247.679749 
	C489.245911,247.155823 488.645416,246.319321 488.066650,245.118591 
	C488.656036,245.625320 489.223724,246.496246 489.818909,247.679749 
z"/>
<path fill="#4ABCE7" opacity="1.000000" stroke="none" 
	d="
M491.841248,252.711411 
	C491.414673,252.436539 490.990692,251.879105 490.787842,251.158920 
	C491.287292,251.473740 491.565582,251.951309 491.841248,252.711411 
z"/>
<path fill="#4ABCE7" opacity="1.000000" stroke="none" 
	d="
M478.379700,232.652191 
	C478.051483,232.598068 477.599762,232.303589 477.080872,231.734695 
	C477.427887,231.777466 477.842072,232.094650 478.379700,232.652191 
z"/>
<path fill="#3CBCB6" opacity="1.000000" stroke="none" 
	d="
M507.124969,328.719421 
	C506.937958,328.919708 506.633392,328.818146 506.207886,328.423584 
	C506.401001,328.195496 506.707825,328.291138 507.124969,328.719421 
z"/>
<path fill="#4ABCE7" opacity="1.000000" stroke="none" 
	d="
M485.811829,240.730255 
	C485.568939,240.828903 485.340363,240.614731 485.112244,240.092865 
	C485.340210,240.002945 485.578033,240.213699 485.811829,240.730255 
z"/>
<path fill="#4ABCE7" opacity="1.000000" stroke="none" 
	d="
M481.841919,235.785736 
	C481.636688,235.889038 481.399536,235.707413 481.106018,235.259857 
	C481.321350,235.125580 481.574799,235.294540 481.841919,235.785736 
z"/>
<path fill="#F5F9FA" opacity="1.000000" stroke="none" 
	d="
M406.427979,324.249146 
	C407.359619,324.366638 407.858398,324.708649 408.301208,324.647217 
	C418.973206,323.167267 424.689545,329.174072 429.141083,337.810669 
	C436.759094,352.590546 444.832275,367.135803 452.458923,381.911407 
	C453.351654,383.640991 453.452271,386.655609 452.536560,388.307617 
	C442.940186,405.620361 433.170990,422.841125 423.116302,439.890778 
	C421.921082,441.917480 418.864471,443.708618 416.461456,444.026398 
	C394.390503,446.945190 372.282043,446.590363 349.809998,443.862183 
	C340.622253,428.500977 332.107727,413.075470 322.906494,398.071075 
	C317.388214,389.072479 317.068665,381.058594 322.796692,371.951385 
	C331.195221,358.598297 338.826233,344.754547 346.535980,330.980865 
	C348.867767,326.815063 352.152069,325.205139 356.598450,325.129608 
	C373.055328,324.849976 389.512146,324.567261 406.427979,324.249146 
M349.746307,383.561401 
	C349.746185,383.894714 349.760071,384.228729 349.743927,384.561279 
	C348.859314,402.779724 364.370026,420.719177 384.593048,420.889984 
	C404.683868,421.059662 420.659119,405.798431 421.699127,385.324066 
	C422.673218,366.147400 406.593933,349.093048 386.734619,348.239197 
	C367.514404,347.412842 350.917542,362.843323 349.746307,383.561401 
z"/>
<path fill="#F5F9FA" opacity="1.000000" stroke="none" 
	d="
M478.205627,271.675903 
	C480.057312,286.809692 478.270447,301.422668 475.871552,316.420776 
	C470.671478,316.108856 465.479279,315.378540 459.893311,314.616699 
	C451.000732,313.049469 442.480011,311.621094 434.019592,309.896667 
	C432.092102,309.503784 429.859161,308.520630 428.639618,307.073608 
	C418.882324,295.496124 409.334869,283.741821 399.262360,271.480713 
	C402.235107,269.032379 405.487762,266.014008 409.072754,263.462585 
	C421.432129,254.666382 433.806213,245.788834 449.153381,242.827606 
	C460.295074,240.677811 469.293152,245.494354 473.810760,255.877579 
	C474.999084,258.608795 475.857727,261.483398 476.997040,264.644897 
	C477.266357,265.815399 477.406372,266.633179 477.699524,268.060211 
	C477.938354,269.111511 478.024078,269.553589 478.109802,269.995667 
	C478.108887,270.447174 478.108002,270.898651 478.205627,271.675903 
z"/>
<path fill="#F5F9FA" opacity="1.000000" stroke="none" 
	d="
M292.947357,265.999237 
	C294.345459,262.548004 295.478455,258.958801 297.189453,255.670380 
	C303.255310,244.012192 311.629669,240.008545 324.403168,243.375412 
	C342.931915,248.259247 357.452698,259.944214 371.571594,271.690979 
	C361.490662,283.878113 351.813843,295.699768 341.935577,307.350586 
	C340.801300,308.688446 338.621155,309.478638 336.792236,309.833313 
	C324.886719,312.142120 312.908661,314.087646 301.034180,316.538910 
	C297.116547,317.347656 295.188568,317.119141 294.834686,312.531464 
	C294.350037,306.248932 293.238403,300.014740 292.292786,292.912140 
	C292.162231,286.726318 292.134369,281.388153 292.284180,275.753479 
	C292.537872,274.309113 292.613892,273.161285 292.795532,271.592834 
	C292.916565,269.447937 292.931946,267.723572 292.947357,265.999237 
z"/>
<path fill="#F5F9FA" opacity="1.000000" stroke="none" 
	d="
M256.456635,351.414124 
	C265.030579,347.486420 273.292694,343.754578 281.336761,340.121246 
	C286.697296,355.295898 291.680023,369.352478 296.595306,383.432587 
	C296.899719,384.304565 296.956055,385.462372 296.651733,386.317841 
	C291.757263,400.077179 286.785400,413.809021 281.580322,428.242523 
	C277.966492,426.862091 274.080170,425.576843 270.359222,423.920135 
	C257.424805,418.161163 244.508896,412.359497 234.236603,402.146423 
	C222.276932,390.255676 221.887436,378.692017 234.322174,367.241882 
	C240.855118,361.226257 248.824219,356.770294 256.456635,351.414124 
z"/>
<path fill="#4DBEE8" opacity="1.000000" stroke="none" 
	d="
M292.106506,276.050018 
	C292.134369,281.388153 292.162231,286.726318 292.152527,292.530640 
	C290.479034,293.171143 288.738892,293.046173 287.225739,293.573151 
	C281.592163,295.535065 275.885590,291.990173 276.046906,286.219208 
	C276.233368,279.548676 276.609772,272.872620 277.232513,266.229797 
	C277.537750,262.974091 278.298370,259.683502 279.413239,256.612091 
	C280.026245,254.923172 281.801971,253.656281 283.053467,252.199112 
	C284.186340,253.450668 285.630188,254.543335 286.371796,255.994812 
	C287.259491,257.732208 287.226807,259.959412 288.185364,261.635559 
	C289.139648,263.304169 290.828217,264.552826 292.571106,265.992432 
	C292.931946,267.723572 292.916565,269.447937 292.479858,271.677124 
	C292.074524,273.471313 292.090515,274.760651 292.106506,276.050018 
z"/>
<path fill="#F2F8F8" opacity="1.000000" stroke="none" 
	d="
M402.922363,303.207458 
	C403.727692,304.278717 404.305206,305.062500 405.294159,306.404694 
	C391.991943,306.404694 379.248108,306.404694 365.111420,306.404694 
	C372.045227,298.616211 378.439941,291.433258 385.398865,283.616577 
	C391.486542,290.410919 397.090546,296.665466 402.922363,303.207458 
z"/>
<path fill="#F5F9FA" opacity="1.000000" stroke="none" 
	d="
M308.877808,408.448761 
	C314.700226,419.334137 320.391663,429.901794 326.445801,441.142975 
	C317.266815,438.936829 308.658173,436.867767 298.707794,434.476196 
	C301.781677,425.148132 304.649536,416.444275 307.568207,407.757477 
	C307.570465,407.750763 308.337158,408.000916 308.877808,408.448761 
z"/>
<path fill="#F2F8F8" opacity="1.000000" stroke="none" 
	d="
M303.333069,334.130798 
	C311.117798,332.341766 318.516663,330.641296 326.960144,328.700745 
	C320.255707,340.310944 314.150848,350.882904 307.159668,362.989655 
	C304.410858,353.499329 301.937744,345.246582 299.783569,336.911407 
	C299.632202,336.325714 301.837677,335.130920 303.333069,334.130798 
z"/>
<path fill="#F5F9F9" opacity="1.000000" stroke="none" 
	d="
M462.096497,525.351074 
	C454.843231,528.206055 448.117218,526.755554 441.471497,524.143555 
	C425.760193,517.968506 412.677795,507.700378 399.393738,497.137939 
	C406.224640,488.679413 414.041687,480.875214 420.251892,471.952637 
	C426.138367,463.495178 433.029022,459.241211 443.400360,458.545685 
	C452.443237,457.939240 461.339813,455.169739 470.305786,453.379883 
	C471.909515,453.059753 473.536530,452.856079 475.643616,452.520538 
	C476.407715,457.251068 477.317200,461.600494 477.781677,465.996918 
	C479.197052,479.393494 479.440613,492.778564 475.897614,505.931946 
	C473.740784,513.939209 470.429382,521.257263 462.096497,525.351074 
z"/>
<path fill="#F5F9F9" opacity="1.000000" stroke="none" 
	d="
M324.351501,526.061523 
	C309.169952,528.947693 300.606537,523.959656 296.032135,509.269073 
	C290.915558,492.837311 291.705078,476.121155 294.739929,459.436768 
	C295.179626,457.019501 294.096680,453.471893 298.592407,452.792236 
	C311.388885,455.233154 323.756195,457.805328 336.173737,460.106750 
	C339.735809,460.766968 342.468384,461.868896 344.836273,464.949982 
	C350.805603,472.717163 357.268311,480.105194 363.915710,488.075867 
	C364.867188,488.998535 365.436279,489.490540 366.005371,489.982544 
	C367.691681,492.000244 369.377991,494.017944 371.509583,496.568420 
	C357.440674,508.957306 342.570038,519.765564 324.351501,526.061523 
z"/>
<path fill="#F5F9F9" opacity="1.000000" stroke="none" 
	d="
M541.909119,372.237213 
	C549.700562,386.095642 544.714417,394.363373 535.644165,403.179779 
	C525.583557,412.958893 503.600189,424.747742 489.375122,428.152740 
	C484.286011,414.091827 479.190308,400.070312 474.177246,386.019318 
	C473.874756,385.171387 474.000854,384.006287 474.315033,383.127228 
	C479.284637,369.221100 484.317749,355.337616 489.582031,340.768982 
	C507.766174,347.341003 525.662109,354.894989 539.921936,370.068237 
	C540.829285,371.100067 541.369202,371.668640 541.909119,372.237213 
z"/>
<path fill="#F2F8F8" opacity="1.000000" stroke="none" 
	d="
M368.082703,465.975800 
	C367.623718,465.160095 367.164703,464.344391 366.511688,463.183899 
	C379.307098,463.183899 391.692169,463.183899 405.755157,463.183899 
	C398.470856,470.631104 392.036560,477.209320 385.022400,483.749695 
	C378.989227,477.799805 373.535980,471.887817 368.082703,465.975800 
z"/>
<path fill="#F2F8F8" opacity="1.000000" stroke="none" 
	d="
M445.002899,440.002411 
	C450.873932,429.282898 456.744995,418.563354 463.386749,406.436615 
	C466.399414,416.500580 469.037354,425.312744 471.983673,435.155121 
	C462.607544,436.985016 454.217621,438.622437 445.413849,440.129944 
	C445.000000,440.000000 445.002899,440.002411 445.002899,440.002411 
z"/>
<path fill="#F2F8F8" opacity="1.000000" stroke="none" 
	d="
M464.299683,359.997040 
	C463.266418,360.048676 461.875092,360.046143 461.546997,359.454254 
	C456.085663,349.601410 450.757446,339.674744 444.878052,328.799896 
	C454.043427,330.888733 462.590698,332.836670 472.049225,334.992279 
	C469.386139,343.624298 466.911224,351.646484 464.299683,359.997040 
z"/>
<path fill="#3CBCB5" opacity="1.000000" stroke="none" 
	d="
M367.666626,465.982941 
	C373.535980,471.887817 378.989227,477.799805 384.720337,483.899933 
	C385.224579,485.215210 385.465118,486.339722 385.674774,487.470001 
	C386.393494,491.344086 383.406189,494.288269 379.559174,493.276733 
	C374.506165,491.948059 370.142395,489.856201 368.006195,484.357269 
	C366.977783,481.709900 364.654907,479.517487 362.732666,477.278320 
	C360.664581,474.869354 358.742920,472.152435 360.964539,469.339417 
	C362.312469,467.632690 365.106262,467.067902 367.666626,465.982941 
z"/>
<path fill="#3CBCB5" opacity="1.000000" stroke="none" 
	d="
M403.171326,486.220032 
	C401.139801,486.937958 399.319641,487.667725 397.523712,487.612305 
	C397.067719,487.598267 396.246796,485.016022 396.448761,483.750305 
	C396.560730,483.048767 398.854736,481.894684 399.445190,482.226349 
	C400.973785,483.085022 402.103027,484.654663 403.171326,486.220032 
z"/>
<path fill="#3CBCB6" opacity="1.000000" stroke="none" 
	d="
M541.905762,371.903687 
	C541.369202,371.668640 540.829285,371.100067 540.205139,370.247559 
	C540.714722,370.499115 541.308594,371.034607 541.905762,371.903687 
z"/>
<path fill="#3CBCB5" opacity="1.000000" stroke="none" 
	d="
M365.964539,489.674255 
	C365.436279,489.490540 364.867188,488.998535 364.212067,488.234070 
	C364.725250,488.429718 365.324463,488.897858 365.964539,489.674255 
z"/>
<path fill="#F2F8F8" opacity="1.000000" stroke="none" 
	d="
M444.997681,439.997589 
	C444.895447,440.023773 444.795502,440.052368 444.849243,440.041687 
	C445.002899,440.002411 445.000000,440.000000 444.997681,439.997589 
z"/>
<path fill="#4ABCE7" opacity="1.000000" stroke="none" 
	d="
M478.401184,269.947083 
	C478.024078,269.553589 477.938354,269.111511 477.863342,268.330811 
	C478.146881,268.627625 478.419739,269.263092 478.401184,269.947083 
z"/>
<path fill="#4BBCE8" opacity="1.000000" stroke="none" 
	d="
M349.751892,383.089539 
	C350.917542,362.843323 367.514404,347.412842 386.734619,348.239197 
	C406.593933,349.093048 422.673218,366.147400 421.699127,385.324066 
	C420.659119,405.798431 404.683868,421.059662 384.593048,420.889984 
	C364.370026,420.719177 348.859314,402.779724 349.743927,384.561279 
	C349.760071,384.228729 349.746185,383.894714 349.751892,383.089539 
z"/>
<path fill="#4ABCE7" opacity="1.000000" stroke="none" 
	d="
M292.284180,275.753479 
	C292.090515,274.760651 292.074524,273.471313 292.374268,272.097687 
	C292.613892,273.161285 292.537872,274.309113 292.284180,275.753479 
z"/>
</svg>